# Blender v3.2.2 OBJ File: 'Dealership.blend'
# www.blender.org
mtllib Dealership.mtl
o Window_Small_Plane.006
v -12.219623 0.524972 -15.003887
v -12.218236 6.090285 -14.946502
v 12.285886 0.518044 -14.924098
v 12.287272 6.083356 -14.866713
vt 0.000000 0.000000
vt 0.000000 1.000000
vt 1.000000 1.000000
vt 1.000000 0.000000
vn -0.0033 -0.0103 0.9999
usemtl Glass
s off
f 1/1/1 3/2/1 4/3/1 2/4/1
o Window_Long_Plane.007
v 12.987650 0.588572 -14.369548
v 12.930274 6.153885 -14.367806
v 13.071755 0.580423 14.453828
v 13.014380 6.145736 14.455569
vt 0.000000 0.000000
vt 0.000000 1.000000
vt 1.000000 1.000000
vt 1.000000 0.000000
vn -0.9999 -0.0103 0.0029
usemtl Glass
s off
f 5/5/2 7/6/2 8/7/2 6/8/2
o Floor_+_Walls_Plane
v 13.312142 0.000000 -15.211023
v -13.312142 0.000000 -15.211023
v 13.312142 0.658924 14.166750
v -13.312142 0.000000 15.211023
v -13.312142 6.676408 -15.211023
v -13.312142 6.676408 15.211023
v 13.312142 0.000000 15.211023
v 13.312142 6.647673 -15.211023
v 13.312142 6.647673 15.211023
v -13.312142 6.647673 15.211023
v 13.312142 6.635203 -15.211023
v -13.312142 6.635203 -15.211023
v 12.076437 5.744268 -15.211023
v 12.076437 0.890935 -15.211023
v -12.076437 0.890935 -15.211023
v -12.076437 5.744268 -15.211023
v 13.312142 5.988750 14.166750
v 13.312142 0.000000 15.211023
v 13.312142 0.658924 -14.166750
v 13.312142 5.988750 -14.166750
v 13.312142 6.647673 -15.094351
v -13.312142 6.647673 -15.094351
v 12.912778 0.287939 -14.754693
v -12.912778 0.287939 -14.754693
v 12.912779 0.658924 14.166750
v -12.912779 0.287939 14.754693
v -12.912779 6.676408 -15.211023
v -12.912779 6.676408 15.211023
v 13.312142 0.000000 15.211023
v 12.912779 6.647673 -15.211023
v 12.912778 6.359734 14.754692
v -13.312142 6.359734 14.754693
v 13.312142 6.635203 -14.754693
v -13.312142 6.635203 -14.754693
v 12.076437 5.744268 -14.754693
v 12.076437 0.890935 -14.754693
v -12.076437 0.890935 -14.754693
v -12.076437 5.744268 -14.754693
v 12.912779 5.988750 14.166750
v 12.912778 0.287939 14.754692
v 12.912779 0.658924 -14.166750
v 12.912779 5.988750 -14.166750
v 13.312142 6.359734 -15.094351
v -13.312142 6.359734 -15.094351
vt 0.000000 0.000000
vt 0.000000 1.000000
vt 1.000000 1.000000
vt 1.000000 0.000000
vt 1.000000 1.000000
vt 1.000000 0.000000
vt 0.000000 1.000000
vt 1.000000 1.000000
vt 0.046413 0.000000
vt 0.953587 0.000000
vt 0.953587 0.000000
vt 1.000000 0.000000
vt 0.000000 0.000000
vt 0.046413 0.000000
vt 0.000000 0.965674
vt 0.000000 0.034326
vt 0.000000 0.034326
vt 0.000000 0.000000
vt 0.000000 0.965674
vt 0.000000 1.000000
vt 1.000000 1.000000
vt 0.000000 0.000000
vt 1.000000 0.000000
vt 1.000000 1.000000
vt 0.000000 1.000000
vt 1.000000 0.000000
vt 1.000000 1.000000
vt 1.000000 1.000000
vt 0.000000 1.000000
vt 0.046413 0.000000
vt 0.953587 0.000000
vt 0.953587 0.000000
vt 0.046413 0.000000
vt 0.000000 0.000000
vt 1.000000 0.000000
vt 0.000000 0.965674
vt 0.000000 0.034326
vt 0.000000 0.034326
vt 0.000000 0.965674
vt 0.000000 0.000000
vt 1.000000 1.000000
vt 0.000000 1.000000
vn 0.0000 -1.0000 0.0000
vn -1.0000 0.0000 0.0000
vn 0.0000 0.0000 1.0000
vn 0.0000 0.0000 -1.0000
vn 1.0000 -0.0000 0.0000
vn 0.0000 1.0000 0.0000
vn 0.5040 -0.0301 -0.8632
vn 0.5040 -0.0301 0.8632
vn -0.9158 -0.0288 -0.4007
vn -0.9125 -0.0281 0.4081
vn 0.9125 -0.0281 0.4081
vn -0.3414 0.9399 0.0045
vn -0.5040 -0.0303 -0.8631
vn 0.8197 -0.5728 0.0054
usemtl Material
s off
f 9/9/3 26/10/3 12/11/3 10/12/3
f 12/11/4 14/13/4 13/14/4 10/12/4
f 26/10/5 17/15/5 18/16/5 12/11/5
f 22/17/6 9/9/6 10/12/6 23/18/6
f 24/19/6 20/20/6 19/21/6 21/22/6
f 23/18/6 10/12/6 20/20/6 24/19/6
f 21/22/6 19/21/6 9/9/6 22/17/6
f 11/23/7 26/10/7 9/9/7 27/24/7
f 28/25/7 16/26/7 17/15/7 25/27/7
f 25/27/7 17/15/7 26/10/7 11/23/7
f 27/24/7 9/9/7 16/26/7 28/25/7
f 17/15/8 29/28/8 30/29/8 18/16/8
f 31/30/8 32/31/8 34/32/8 48/33/8
f 34/32/7 32/31/7 35/34/7 36/35/7
f 48/33/6 34/32/6 40/36/6 39/37/6
f 44/38/5 45/39/5 32/31/5 31/30/5
f 46/40/5 43/41/5 41/42/5 42/43/5
f 45/39/5 46/40/5 42/43/5 32/31/5
f 43/41/5 44/38/5 31/30/5 41/42/5
f 33/44/4 49/45/4 31/30/4 48/33/4
f 50/46/4 47/47/4 39/37/4 38/48/4
f 47/47/4 33/44/4 48/33/4 39/37/4
f 49/45/4 50/46/4 38/48/4 31/30/4
f 39/37/3 40/36/3 52/49/3 51/50/3
f 14/13/8 36/35/8 35/34/8 13/14/8
f 13/14/9 35/34/9 32/31/9 10/12/9
f 12/11/10 34/32/10 36/35/10 14/13/10
f 25/27/3 47/47/3 50/46/3 28/25/3
f 18/16/11 40/36/11 34/32/11 12/11/11
f 28/25/5 50/46/5 49/45/5 27/24/5
f 21/22/3 43/41/3 46/40/3 24/19/3
f 24/19/7 46/40/7 45/39/7 23/18/7
f 22/17/4 44/38/4 43/41/4 21/22/4
f 23/18/8 45/39/8 44/38/8 22/17/8
f 20/20/8 42/43/8 41/42/8 19/21/8
f 10/12/12 32/31/12 42/43/12 20/20/12
f 19/21/13 41/42/13 31/30/13 9/9/13
f 27/24/8 49/45/8 33/44/8 11/23/8
f 16/26/14 38/48/14 39/37/14 17/15/14
f 11/23/6 33/44/6 47/47/6 25/27/6
f 9/9/15 31/30/15 38/48/15 16/26/15
f 29/28/6 51/50/6 52/49/6 30/29/6
f 17/15/16 39/37/16 51/50/16 29/28/16
f 30/29/4 52/49/4 40/36/4 18/16/4
l 26 15
l 48 37
